<svg id="Layer_1" data-name="Layer 1" xmlns="http://www.w3.org/2000/svg" viewBox="0 0 512 512"><title>human-head-brains-glyph</title><path d="M453.73,197c-5.56-64.25-43.59-123.5-96.87-159-29.2-19.45-63-31.38-97.75-35.9C163.41-10.31,62.61,31.72,26.51,125.73c-31,80.81-.44,161,55.14,222.23,20.05,22.08,22.83,63.6,22.83,91.56v56.72A15.77,15.77,0,0,0,120.26,512H325.47a15.78,15.78,0,0,0,15.73-14.73c.76-11.16,2-21,2-21,4.29-18.4,20-33.16,53.34-27.8,35,5.61,57.09-4.82,59.05-28.13.65-7.69,1.07-73.37,1.07-73.37,1.67-1,12.65-3.14,28.64-6.77A16.15,16.15,0,0,0,493.06,313c-36.36-36-41.24-52.75-42.14-56.36-4.51-17.93,4.44-40.76,2.81-59.6Zm-67.78-21.47c-5.05,6.4-10.8,7.65-13.85,7.82a1.56,1.56,0,0,0-1.43,2c1.56,5.51,3.15,20.67-24,26.58-25.46,5.54-40.86,25.34-50.92,35.4-7.72,7.72-18.17,11.29-28.59,13.64-10.65,2.39-21.2,4.49-29.6,12.06-8.85,8-21.33,51.85-23.45,59.49a1.54,1.54,0,0,1-1.49,1.13H199.55a1.55,1.55,0,0,1-1.52-1.23l-6.34-30c-.27-1.26-61.65,3.79-66.38-23.61a1.56,1.56,0,0,0-2.05-1.23c-5.9,2.13-24.84,7.37-35.06-8.47a31.39,31.39,0,0,1-4.31-25.34A1.54,1.54,0,0,0,83,242c-5.21-2.24-24-12.79-21.47-47.5,2.06-28,21-40.38,18.34-44.69-7.64-12.41-1-33,14.64-37.58a1.59,1.59,0,0,0,1.14-1.4l.66-7.29c2.17-25.72,36-42,58.94-31.33a1.62,1.62,0,0,0,2.23-1c2.88-9.12,8.68-11.63,10.23-12.5,7.12-4,16.37-3.51,23.74-.49a1.53,1.53,0,0,0,1.71-.38c2.09-2.24,10.67-9.36,24.88-9.36,14.57,0,22,7.08,24.57,9.06a1.55,1.55,0,0,0,1.65.16c3.28-1.68,15.25-7,27.23-2.91,9,3.12,14.19,11.36,15.81,14.36a1.61,1.61,0,0,0,1.78.8c4.3-1,19.16-3.87,31.65,1.76,13.19,6,17.31,14.58,18.36,17.48a1.54,1.54,0,0,0,1.39,1c2.86.11,10.76.81,15.64,4.91,8.62,7.24,7.77,13,6.79,15.4a1.54,1.54,0,0,0,.75,2,49.79,49.79,0,0,1,21.81,21.84c9.42,18.66,5.65,34.67.48,41.22Zm0,0" fill="#5b5b5f"/></svg>